# This file uses centimeters as units for non-parametric coordinates.

mtllib InnerEdge.mtl
g default
v -5.999996 10.614752 -0.000010
v -6.000004 10.614752 0.499994
v -5.999989 10.614752 -0.500006
v -6.000004 9.882219 0.499994
v -5.999989 9.882219 -0.500006
v -6.000004 -10.614752 0.499994
v -6.000004 -0.291624 0.499994
v -6.000004 -2.195751 0.499994
v 5.120220 9.882219 -0.499996
v 6.000004 9.882219 -0.499996
v 6.000004 10.614752 -0.499996
v 5.120152 10.614752 -0.499996
v 5.999996 10.614752 -0.000004
v 5.120144 10.614752 0.000000
v 6.000004 10.614752 0.500004
v 5.120220 10.614752 0.500004
v 6.000004 9.882219 0.500004
v 5.120220 9.882219 0.500004
v 6.000004 -0.291624 0.500004
v 5.120220 -0.291624 0.500004
v 6.000004 -2.195751 0.500004
v 5.120220 -2.195751 0.500004
v 6.000004 -10.614752 0.500004
v 5.120220 -10.614752 0.500004
v -5.128803 9.882219 -0.500006
v -5.128811 10.614752 -0.500002
v -5.128819 10.614752 -0.000011
v -5.128819 10.614752 0.499994
v -5.128819 9.882219 0.499994
v -5.128819 -0.291624 0.499996
v -5.128819 -2.195751 0.499996
v -5.128819 -10.614752 0.499996
v -0.004299 -10.614752 0.500000
v -0.004299 -2.195751 0.500000
v -0.004299 -0.291624 0.500000
v -0.004299 9.882219 0.499999
v -0.004299 10.614752 0.499999
v -0.004337 10.614752 -0.000006
v -0.004330 10.614752 -0.499999
v -0.004292 9.882219 -0.500001
vt 0.998502 0.969434
vt 0.934703 1.000000
vt 0.934703 0.969434
vt 0.187794 0.969434
vt 0.187794 1.000000
vt 0.998502 0.900051
vt 0.969017 0.900977
vt 0.511055 0.900977
vt 0.934703 0.900051
vt 0.934703 0.869178
vt 0.424639 0.900977
vt 0.835496 0.866243
vt 0.910342 0.966870
vt 0.187794 0.900051
vt 0.046807 0.900977
vt 0.837691 0.358925
vt 0.527139 0.966870
vt 0.837691 0.009409
vt 0.455420 0.966870
vt 0.138314 0.966870
vt 0.998502 0.934913
vt 0.934703 0.934913
vt 0.187794 0.934913
vt 0.187794 0.869178
vt 0.969017 0.967243
vt 0.998502 0.869178
vt 0.836530 0.777803
vt 0.424639 0.967243
vt 0.046807 0.967243
vt 0.511055 0.967243
vt 0.836530 0.356154
vt 0.835496 0.787013
vt 0.998502 1.000000
vt 0.246309 1.000000
vt 0.246309 0.969434
vt 0.246309 0.934913
vt 0.246309 0.900051
vt 0.246309 0.869178
vt 0.910337 0.900795
vt 0.527135 0.900795
vt 0.455415 0.900795
vt 0.138310 0.900795
vt 0.449272 0.777803
vt 0.449272 0.356154
vt 0.449865 0.866243
vt 0.449865 0.787013
vt 0.448604 0.358925
vt 0.448604 0.009409
vt 0.643148 0.009409
vt 0.643148 0.358925
vt 0.642681 0.787013
vt 0.642681 0.866243
vt 0.642901 0.356154
vt 0.590506 0.869178
vt 0.642901 0.777803
vt 0.590506 0.900051
vt 0.590506 0.934913
vt 0.590506 0.969434
vt 0.590506 1.000000
vn -0.000001 0.000000 1.000000
vn -0.000001 0.000000 1.000000
vn -0.000001 0.000000 1.000000
vn -0.000001 0.000000 1.000000
vn 0.000000 1.000000 -0.000000
vn 0.000000 1.000000 -0.000000
vn 0.000000 1.000000 0.000000
vn 0.000000 1.000000 0.000000
vn 0.000001 0.000004 -1.000000
vn 0.000001 0.000004 -1.000000
vn 0.000001 0.000003 -1.000000
vn 0.000001 0.000003 -1.000000
vn 0.000000 0.000000 -1.000000
vn 0.000001 0.000001 -1.000000
vn 0.000001 0.000001 -1.000000
vn 0.000000 0.000000 -1.000000
vn 0.000000 1.000000 -0.000000
vn 0.000000 1.000000 0.000000
vn -0.000001 0.000000 1.000000
vn -0.000001 0.000000 1.000000
vn -0.000001 0.000000 1.000000
vn -0.000001 0.000000 1.000000
vn -0.000001 0.000000 1.000000
vn -0.000001 0.000000 1.000000
vn 0.000000 1.000000 0.000000
vn 0.000000 1.000000 0.000000
vn 0.000000 1.000000 0.000000
vn 0.000000 1.000000 0.000000
vn 0.000000 1.000000 -0.000000
vn 0.000000 1.000000 -0.000000
vn 0.000000 0.000000 1.000000
vn -0.000001 0.000000 1.000000
vn -0.000001 0.000000 1.000000
vn 0.000000 0.000000 1.000000
vn -0.000001 0.000000 1.000000
vn 0.000000 0.000000 1.000000
vn -0.000001 0.000000 1.000000
vn 0.000000 0.000000 1.000000
vn -0.000001 0.000000 1.000000
vn 0.000000 0.000000 1.000000
vn 0.000002 0.000003 -1.000000
vn 0.000002 0.000003 -1.000000
vn 0.000000 1.000000 -0.000000
vn 0.000000 1.000000 -0.000000
vn 0.000000 1.000000 -0.000000
vn -0.000001 0.000000 1.000000
vn 0.000000 0.000000 1.000000
vn -0.000001 0.000000 1.000000
vn -0.000002 0.000000 1.000000
vn -0.000002 0.000000 1.000000
s 1
g InnerEdge1
usemtl lambert22SG
f 28/37/1 29/38/2 36/54/3 37/56/4
s 2
f 26/35/5 27/36/6 38/57/7 39/58/8
s 3
f 25/34/9 26/35/10 39/58/11 40/59/12
f 10/33/13 9/2/14 12/3/15 11/1/16
s 2
f 27/36/6 28/37/17 37/56/18 38/57/7
s 1
f 35/53/19 36/55/3 29/43/2 30/44/20
f 34/51/21 35/52/19 30/45/20 31/46/22
f 31/47/22 32/48/23 33/49/24 34/50/21
s 2
f 11/1/25 12/3/26 14/22/27 13/21/28
f 13/21/28 14/22/27 16/9/29 15/6/30
s 1
f 15/6/31 16/9/32 18/10/33 17/26/34
f 17/7/34 18/25/33 20/30/35 19/8/36
f 19/8/36 20/30/35 22/28/37 21/11/38
f 21/11/38 22/28/37 24/29/39 23/15/40
s 3
f 3/4/41 26/35/10 25/34/9 5/5/42
s 2
f 1/23/43 27/36/6 26/35/5 3/4/44
f 2/14/45 28/37/17 27/36/6 1/23/43
s 1
f 4/24/46 29/38/2 28/37/1 2/14/47
f 30/40/20 29/39/2 4/13/46 7/17/48
f 31/41/22 30/40/20 7/17/48 8/19/49
f 6/20/50 32/42/23 31/41/22 8/19/49
f 34/50/21 33/49/24 24/18/39 22/16/37
f 22/32/37 20/12/35 35/52/19 34/51/21
f 20/31/35 18/27/33 36/55/3 35/53/19
f 37/56/4 36/54/3 18/10/33 16/9/32
s 2
f 38/57/7 37/56/18 16/9/29 14/22/27
f 39/58/8 38/57/7 14/22/27 12/3/26
s 3
f 40/59/12 39/58/11 12/3/15 9/2/14
