# ProBuilder 4.5.0
# https://unity3d.com/unity/features/worldbuilding/probuilder
# 07/07/2021 22:47:25

mtllib ./Hard_Level_Ground.mtl
o Hard Level Ground

g Plane (2)
v -2.690899 -0.2064097 -3.041057
v -3.267301 -0.2065096 -3.041057
v -3.267301 -0.2064596 -3.936502
v -2.665632 -0.2063597 -3.912301
v -3.267301 -0.2066096 -1.849108
v -4.113619 -0.2065096 -1.849109
v -4.11362 -0.2064596 -2.072616
v -3.267302 -0.2065597 -2.072616
v -4.113619 -0.2064095 -3.041057
v -2.690899 -0.2064597 -2.072616
v -2.794955 -0.2065097 -1.892344
v -3.267301 -0.2064347 -4.152408
v -2.68393 -0.2063347 -4.140307
v -3.267301 -0.2064096 -4.693146
v -2.702228 -0.2063096 -4.693146
v -2.413733 -0.2062847 -4.146358
v -2.47047 -0.2063098 -3.984652
v -2.03565 -0.2062347 -4.152407
v -2.175867 -0.2062597 -3.986781
v -2.422882 -0.2062597 -4.693147
v -2.03565 -0.2062096 -4.693146
v -2.317912 0.0002999205 -0.1823694
v -3.015013 0.0004000784 -0.1630525
v -2.397802 0.0004000784 -0.01899533
v -3.015013 0.0005000519 -0.0189957
v -2.386902 -0.2068598 0.3815641
v -3.021177 -0.2068097 0.3815638
v -3.828104 -0.2067097 0.3815651
v -3.828105 -0.2066096 -0.6974571
v -2.332884 -0.2067096 -0.6974566
v -0.5686077 0.0003001049 -0.8420987
v -1.081794 0.0003500917 -0.8420985
v -1.081794 0.0004000784 -1.3962
v -0.5686083 0.0003500917 -1.221493
v -1.081793 0.0004502496 -1.503011
v -0.6402812 0.0004000784 -1.464276
v -3.828104 -0.2065596 -1.322724
v -2.332884 -0.2066596 -1.322724
v -3.673985 -0.2065096 -1.482979
v -2.397312 -0.2066097 -1.496257
v -1.478425 -0.2065596 -1.322723
v -1.478425 -0.2066096 -0.6974564
v -1.478424 -0.2065095 -1.5007
v -2.397802 0.0003500917 -0.353165
v -3.036871 0.0004500652 -0.3531656
v -1.081795 0.0002501182 -0.1630527
v -1.081794 0.0003001049 -0.3531654
v -0.5686079 0.0002501182 -0.3531654
v -0.7337546 0.000199947 -0.1774828
v -3.03755 0.0004749663 -0.5928565
v -2.397802 0.0003751773 -0.5976314
v -2.978416 0.0005000519 -0.8182831
v -2.397802 0.0004000784 -0.8420978
v -1.081794 0.0003250061 -0.597632
v -0.5686079 0.0002750194 -0.597632
v -2.585408 -0.2069597 0.7135559
v -3.021178 -0.2069096 0.7135559
v -3.021178 -0.2068597 0.5409739
v -2.386902 -0.2069099 0.6023274
v -3.828105 -0.2067598 0.5409747
v -3.692828 -0.2068097 0.7135555
v -2.332883 -0.2065595 -2.598071
v -2.212956 -0.2065095 -2.769595
v -1.478423 -0.2064095 -2.769594
v -1.478424 -0.2064596 -2.598071
v -1.179723 -0.2063094 -2.769596
v -1.079304 -0.2063595 -2.598071
v -2.330524 -0.2065847 -1.619057
v -1.478424 -0.2064846 -1.630885
v -1.079305 -0.2063846 -1.630886
v -1.079305 -0.2064095 -1.500701
v -0.8204851 0.0002003159 2.359214
v -0.9004142 0.000100158 1.498704
v -2.194588 0.0003002894 2.359214
v -2.194589 0.0002001314 1.498704
v -0.8204862 0.0003001049 3.154758
v -2.194589 0.0004000784 3.154757
v -2.706649 0.0004500652 3.154757
v -2.706647 0.0003502762 2.37144
v -3.218709 0.0005000519 3.154757
v -3.218707 0.0004002629 2.37144
v -2.706647 -0.2070001 1.969562
v -2.194587 -0.2070501 1.969562
v -2.706647 -0.2069097 1.445918
v -2.194587 -0.2069598 1.445918
v -3.999163 -0.2068098 1.396704
v -4.035352 -0.2068999 1.969562
v -4.449192 -0.20685 1.969562
v -4.449191 -0.2067596 1.445918
v -5.258659 -0.2068 1.969562
v -5.258659 -0.2067096 1.445918
v -4.035351 -0.2068 2.4232
v -4.449191 -0.20675 2.4232
v -5.258659 -0.2067 2.4232
v -4.449191 -0.2066596 1.150585
v -4.048448 -0.2067098 1.157233
v -5.258659 -0.2066096 1.150585
v -4.449192 -0.2065594 -0.9037139
v -4.035352 -0.2066095 -0.9037139
v -0.1494346 -7.378118E-07 0.6724586
v 0.90656 1.844529E-07 0.6833284
v 0.9065589 0 0.8758339
v -0.03801981 0 0.8758335
v 0.9065596 1.844529E-07 1.498704
v 0.01740203 1.844529E-07 1.498704
v -0.9004157 9.99735E-05 0.7022142
v -0.9004148 9.99735E-05 0.8758339
v -2.194589 0.000199947 0.8758339
v -1.985877 0.000199947 0.6833281
v 0.9065586 0 0.4150667
v -0.08618969 -1.844529E-07 0.4248435
v -0.4415062 5.01712E-05 1.498704
v -0.4015415 0.0001503291 2.348285
v 0.01740277 0.000100158 2.337358
v -0.4862134 4.943339E-05 0.718787
v -0.4692173 4.998675E-05 0.8758339
v 0.9065593 1.844529E-07 -1.337839
v 0.9065578 -1.844529E-07 -1.099301
v -0.09697392 -3.689059E-07 -1.094412
v 0.04654117 -1.844529E-07 -1.31609
v -3.808884 -0.2069502 1.969562
v -3.808885 -0.2068601 1.456309
v -3.808884 -0.2068501 2.4232
v -2.706647 -0.2069 2.4232
v -0.997323 -0.2061097 -3.771135
v -1.661665 -0.2061596 -3.781952
v -1.620483 -0.2061097 -4.2822
v -0.9973254 -0.2060597 -4.218749
v -1.424075 -0.2060597 -4.355394
v -1.151108 -0.2060097 -4.359645
v -0.997323 -0.2061346 -3.104086
v -1.64592 -0.2061846 -3.109495
v -1.051971 -0.2061596 -2.989816
v -1.630175 -0.2062096 -2.954346
v -2.176153 -0.2062096 -3.736325
v -2.117979 -0.2061846 -3.776543
v -2.068454 -0.2062096 -3.106791
v -2.185836 -0.2062346 -3.123048
v -2.018929 -0.2062346 -2.967051
v -2.195519 -0.2062596 -3.039783
v -0.6404505 -0.2061597 -1.898078
v -0.7539651 -0.2061346 -2.08649
v 0.8916783 -0.2060347 -2.086489
v 0.8916783 -0.2060597 -1.910518
v -0.7539651 -0.2061097 -4.38153
v 0.8916788 -0.2060097 -4.381529

vt 2.690912 -3.041052
vt 3.267315 -3.041052
vt 3.267314 -3.936496
vt 2.665646 -3.912296
vt 3.267277 -1.84908
vt 4.113595 -1.84908
vt 4.113595 -2.072588
vt 3.267277 -2.072587
vt 4.113595 -3.041029
vt 2.690935 -2.072592
vt 2.794991 -1.89232
vt 3.267315 -4.152402
vt 2.683944 -4.140302
vt 3.267314 -4.693141
vt 2.702241 -4.693141
vt 2.413769 -4.146342
vt 2.470506 -3.984635
vt 2.035685 -4.152391
vt 2.175903 -3.986765
vt 2.422917 -4.69313
vt 2.035685 -4.69313
vt 2.317912 0.2566781
vt 3.015013 0.275995
vt 2.397802 0.4200523
vt 3.015013 0.420052
vt 2.397802 0.373065
vt 3.015013 0.3730645
vt 2.386869 0.824068
vt 3.021144 0.8240917
vt 3.828079 0.8206317
vt 3.021152 0.8206306
vt 3.828079 -0.2583906
vt 2.332859 -0.2583901
vt 0.5686077 -0.8420987
vt 1.081794 -0.8420986
vt 1.081794 -1.3962
vt 0.5686083 -1.221493
vt 1.081793 -1.503011
vt 0.6402812 -1.464276
vt 2.332875 -0.6974323
vt 3.828095 -0.6974329
vt 3.828094 -1.322699
vt 2.332875 -1.322699
vt 3.673976 -1.482955
vt 2.397303 -1.496233
vt 1.478438 -1.32269
vt 1.478438 -0.6974227
vt 1.478438 -1.500667
vt 1.07415 -1.503015
vt 1.074172 -1.396201
vt 1.492477 -1.322722
vt 1.492455 -1.500704
vt 1.074179 -0.8420987
vt 1.492483 -0.6974558
vt 2.397802 0.08588243
vt 3.036871 0.08588174
vt 1.081795 0.2759948
vt 1.081795 0.08588207
vt 0.5686082 0.08588207
vt 0.7337548 0.2615647
vt 3.03755 -0.1538092
vt 2.397801 -0.158584
vt 2.978416 -0.3792358
vt 2.397801 -0.4030505
vt 1.081794 -0.1585847
vt 0.568608 -0.1585845
vt 1.081794 -0.4030512
vt 0.5686079 -0.4030514
vt 2.585397 1.152688
vt 3.021166 1.152688
vt 3.021166 0.9801057
vt 2.386891 1.041459
vt 2.386891 0.820696
vt 3.828076 0.9800726
vt 3.6928 1.152653
vt 2.332907 -2.158997
vt 2.21298 -2.330521
vt 1.478446 -2.330521
vt 1.478447 -2.158997
vt 1.179775 -2.330513
vt 1.079356 -2.158989
vt 2.397336 -1.057184
vt 2.330548 -1.179983
vt 1.478448 -1.191811
vt 1.478448 -1.061627
vt 1.079356 -1.191803
vt 1.079357 -1.061618
vt 0.8204855 2.388226
vt 0.9004145 1.527716
vt 2.194588 2.388226
vt 2.194589 1.527716
vt 0.8204867 3.183769
vt 2.194589 3.183769
vt 2.194588 2.359214
vt 2.194589 3.154757
vt 2.706649 3.154757
vt 2.706647 2.37144
vt 3.218709 3.154757
vt 3.218707 2.37144
vt 2.706441 2.148603
vt 2.194421 2.134846
vt 2.708975 1.696393
vt 2.196954 1.693501
vt 2.706627 1.998609
vt 2.194567 1.998609
vt 2.706627 1.474966
vt 2.194567 1.474966
vt 3.999176 1.396738
vt 4.035365 1.969595
vt 4.449205 1.969596
vt 4.449204 1.445952
vt 5.258672 1.969595
vt 5.258672 1.445952
vt 4.031493 1.969554
vt 4.031493 2.423193
vt 4.442435 2.423193
vt 4.442435 1.969554
vt 5.246218 2.423192
vt 5.246218 1.969551
vt 3.999144 1.425786
vt 4.449172 1.475
vt 4.449172 1.179667
vt 4.048429 1.186314
vt 5.25864 1.475
vt 5.25864 1.179667
vt 4.449166 -0.8746917
vt 4.035326 -0.8746917
vt 0.1494346 0.6724586
vt -0.90656 0.6833284
vt -0.9065589 0.8758339
vt 0.03801981 0.8758335
vt -0.9065596 1.498704
vt -0.01740203 1.498704
vt 0.900416 0.731226
vt 0.900415 0.9048459
vt 2.194589 0.9048459
vt 1.985877 0.7123399
vt -0.9065586 0.4150667
vt 0.08618969 0.4248435
vt 0.4415064 1.527716
vt 0.4015417 2.377297
vt -0.01740156 1.527716
vt -0.01740229 2.366369
vt 0.4862134 0.7477989
vt 0.4692173 0.9048458
vt 0.1494345 0.7014704
vt 0.03801967 0.9048454
vt -0.9065593 -1.337839
vt -0.9065578 -1.099301
vt 0.09697392 -1.094412
vt -0.04654117 -1.31609
vt 3.808857 1.998609
vt 3.808858 1.485357
vt 4.035325 1.998609
vt 3.808857 2.452165
vt 4.035323 2.452166
vt 2.70662 2.452166
vt 0.9973135 -3.771111
vt 1.661655 -3.781928
vt 1.620474 -4.282176
vt 0.9973159 -4.218724
vt 1.424065 -4.35537
vt 1.151098 -4.359621
vt 0.9973403 -3.104066
vt 1.645937 -3.109475
vt 1.051989 -2.989796
vt 1.630192 -2.954326
vt 2.17617 -3.736305
vt 2.117996 -3.776523
vt 2.068471 -3.106771
vt 2.185853 -3.123027
vt 2.018946 -2.967031
vt 2.195536 -3.039763
vt 0.6404678 -1.898058
vt 0.7539825 -2.08647
vt -0.891661 -2.086469
vt -0.891661 -1.910498
vt 0.7539824 -4.38151
vt -0.8916614 -4.381509

vn -0.0001707668 1 5.414258E-05
vn -0.0001910679 0.9999999 0.0002234771
vn 0.0001284301 0.9999999 -0.0005502569
vn 0.000143591 0.8881523 0.4595492
vn -0.4626023 0.8865658 0.0004133462
vn 3.052386E-05 0.9999999 0.0005021991
vn -0.01086057 0.8886322 -0.458492
vn -0.005387206 0.8857107 -0.4641306
vn 8.616281E-05 0.8827893 -0.4697691

usemtl Lit
f 1/1/1 4/4/1 3/3/1 2/2/1
f 5/5/1 8/8/1 7/7/1 6/6/1
f 8/8/1 2/2/1 9/9/1 7/7/1
f 5/5/2 11/11/1 10/10/1 8/8/1
f 8/8/1 10/10/1 1/1/1 2/2/1
f 4/4/1 13/13/1 12/12/1 3/3/1
f 13/13/1 15/15/1 14/14/1 12/12/1
f 16/16/1 13/13/1 4/4/1 17/17/1
f 19/19/1 18/18/1 16/16/1 17/17/1
f 13/13/1 16/16/1 20/20/1 15/15/1
f 20/20/1 16/16/1 18/18/1 21/21/1
f 25/25/3 24/24/3 22/22/3 23/23/3
f 27/29/4 26/28/4 24/26/4 25/27/4
f 30/33/1 29/32/1 28/30/1 27/31/1
f 31/34/1 34/37/1 33/36/1 32/35/1
f 34/37/2 36/39/1 35/38/2 33/36/2
f 30/40/1 38/43/1 37/42/1 29/41/1
f 38/43/2 40/45/2 39/44/2 37/42/2
f 42/47/1 41/46/1 38/43/1 30/40/1
f 41/46/1 43/48/1 40/45/1 38/43/2
f 33/50/5 35/49/5 43/52/5 41/51/5
f 32/53/5 33/50/5 41/51/5 42/54/5
f 23/23/1 22/22/1 44/55/2 45/56/1
f 49/60/1 48/59/2 47/58/1 46/57/1
f 47/58/1 44/55/1 22/22/2 46/57/1
f 45/56/1 44/55/1 51/62/1 50/61/1
f 50/61/1 51/62/1 53/64/1 52/63/1
f 48/59/1 55/66/1 54/65/1 47/58/1
f 55/66/1 31/68/1 32/67/1 54/65/1
f 47/58/1 54/65/1 51/62/1 44/55/1
f 54/65/1 32/67/1 53/64/1 51/62/1
f 57/70/1 56/69/2 59/72/6 58/71/2
f 59/72/1 26/73/1 27/31/2 58/71/1
f 60/74/1 58/71/1 27/31/1 28/30/1
f 57/70/1 58/71/1 60/74/1 61/75/1
f 65/79/1 64/78/1 63/77/1 62/76/1
f 67/81/2 66/80/2 64/78/2 65/79/2
f 69/84/1 68/83/1 40/82/1 43/85/1
f 65/79/1 62/76/1 68/83/1 69/84/1
f 71/87/2 70/86/2 69/84/2 43/85/2
f 70/86/1 67/81/1 65/79/1 69/84/1
f 75/91/1 74/90/1 72/88/1 73/89/1
f 77/93/1 76/92/1 72/88/1 74/90/1
f 78/96/1 77/95/1 74/94/1 79/97/1
f 80/98/1 78/96/1 79/97/1 81/99/1
f 83/103/9 82/102/8 79/100/7 74/101/8
f 85/107/1 84/106/1 82/104/1 83/105/1
f 88/110/1 87/109/1 86/108/1 89/111/1
f 90/112/1 88/110/1 89/111/1 91/113/1
f 93/116/1 92/115/1 87/114/1 88/117/1
f 94/118/1 93/116/1 88/117/1 90/119/1
f 89/121/2 86/120/2 96/123/2 95/122/2
f 91/124/2 89/121/2 95/122/2 97/125/2
f 99/127/1 98/126/1 95/122/1 96/123/1
f 102/130/1 101/129/1 100/128/1 103/131/1
f 104/132/1 102/130/1 103/131/1 105/133/1
f 108/136/1 107/135/1 106/134/1 109/137/1
f 75/91/1 73/89/1 107/135/1 108/136/1
f 100/128/1 101/129/1 110/138/1 111/139/1
f 72/88/1 113/141/1 112/140/1 73/89/1
f 113/141/1 114/143/1 105/142/1 112/140/1
f 107/135/1 116/145/1 115/144/1 106/134/1
f 116/145/1 103/147/1 100/146/1 115/144/1
f 112/140/1 116/145/1 107/135/1 73/89/1
f 105/142/1 103/147/1 116/145/1 112/140/1
f 118/149/1 117/148/1 120/151/1 119/150/1
f 118/149/1 119/150/1 111/139/1 110/138/1
f 121/152/1 82/104/1 84/106/1 122/153/1
f 87/154/1 121/152/1 122/153/1 86/120/1
f 92/156/2 123/155/2 121/152/2 87/154/2
f 123/155/1 124/157/1 82/104/1 121/152/1
f 125/158/1 128/161/1 127/160/1 126/159/1
f 128/161/2 130/163/6 129/162/2 127/160/2
f 132/165/1 131/164/1 125/158/1 126/159/1
f 134/167/1 133/166/1 131/164/1 132/165/1
f 138/171/1 137/170/1 136/169/2 135/168/1
f 139/172/2 137/170/2 138/171/2 140/173/2
f 139/172/1 134/167/1 132/165/1 137/170/1
f 137/170/1 132/165/1 126/159/1 136/169/1
f 141/174/1 144/177/1 143/176/1 142/175/1
f 142/175/1 143/176/1 146/179/1 145/178/1

